<svg xmlns="http://www.w3.org/2000/svg" width="34" height="34" viewBox="0 0 34 34"><defs><style>.a{fill:transparent;}.b{fill:#6d7274;}</style></defs><g transform="translate(-1083 -30)"><rect class="a" width="34" height="34" rx="6" transform="translate(1083 30)"/><g transform="translate(1085.5 36.5)"><g transform="translate(7.5 2.5)"><path class="b" d="M21.226,4.942H17.2V4.336A1.84,1.84,0,0,0,15.365,2.5H13.984a1.84,1.84,0,0,0-1.836,1.836v.606H8.089a.589.589,0,0,0,0,1.179H21.226a.589.589,0,0,0,0-1.179Zm-7.933-.606a.676.676,0,0,1,.674-.674h1.381a.676.676,0,0,1,.674.674v.606H13.294Z" transform="translate(-7.5 -2.5)"/><path class="b" d="M25.753,31.5a.6.6,0,0,0-.589.589v8.472a.87.87,0,0,1-.876.876H16.355a.87.87,0,0,1-.876-.876V32.089a.6.6,0,0,0-.589-.589.586.586,0,0,0-.589.589v8.472a2.063,2.063,0,0,0,2.055,2.055h7.933a2.063,2.063,0,0,0,2.055-2.055V32.089A.6.6,0,0,0,25.753,31.5Z" transform="translate(-13.155 -26.616)"/><path class="b" d="M31.579,39.433V32.089a.6.6,0,0,0-.589-.589.586.586,0,0,0-.589.589v7.36a.59.59,0,1,0,1.179-.017Z" transform="translate(-26.543 -26.616)"/><path class="b" d="M47.679,39.433V32.089a.6.6,0,0,0-.589-.589.586.586,0,0,0-.589.589v7.36a.59.59,0,1,0,1.179-.017Z" transform="translate(-39.932 -26.616)"/><path class="b" d="M63.779,39.433V32.089a.589.589,0,1,0-1.179,0v7.36a.59.59,0,1,0,1.179-.017Z" transform="translate(-53.32 -26.616)"/></g></g></g></svg>