<svg xmlns="http://www.w3.org/2000/svg" width="34" height="34" viewBox="0 0 34 34"><defs><style>.a{fill:transparent;}.b{fill:#6d7274;}</style></defs><g transform="translate(-1083 -30)"><rect class="a" width="34" height="34" rx="6" transform="translate(1083 30)"/><g transform="translate(1092.129 39)"><g transform="translate(-0.129 0)"><g transform="translate(0 0)"><path class="b" d="M11.314.178a.572.572,0,0,1,.829,0h0l3.551,3.551a.572.572,0,0,1,0,.829h0L5.633,14.618a1.292,1.292,0,0,1-.3.178h0L.6,15.98a.588.588,0,0,1-.71-.71h0l1.184-4.735c0-.118.059-.178.178-.3h0ZM9.361,3.788,2.2,10.949l-.888,3.61,3.61-.888L12.084,6.51Zm2.367-2.367L10.19,2.959l2.722,2.722,1.539-1.539Z" transform="translate(0.129 0)"/></g></g></g></g></svg>